<?xml version="1.0" encoding="UTF-8" standalone="no"?>
<!-- metaory <metaory@gmail.com>, Apr 2024 -->

<svg
   width="100"
   height="100"
   version="1.1"
   viewBox="0 0 100 100"
   id="svg1"
   sodipodi:docname="x_favicon_240919243300.svg"
   xmlns:inkscape="http://www.inkscape.org/namespaces/inkscape"
   xmlns:sodipodi="http://sodipodi.sourceforge.net/DTD/sodipodi-0.dtd"
   xmlns="http://www.w3.org/2000/svg"
   xmlns:svg="http://www.w3.org/2000/svg">
  <defs
     id="defs1" />
  <sodipodi:namedview
     id="namedview1"
     pagecolor="#000011"
     bordercolor="#222233"
     borderopacity="1"
     inkscape:showpageshadow="0"
     inkscape:pageopacity="0"
     inkscape:pagecheckerboard="1"
     inkscape:deskcolor="#111122" />
  <rect
     fill="black"
     fill-opacity="0"
     width="100"
     height="100"
     x="0"
     y="0"
     rx="50"
     ry="50"
     id="rect1" />
  <path
     d="m 49.085937,97.51762 h 1.6875 c 6.515625,0 9.046875,-1.96875 9.046875,-8.578125 v -22.125 l 18.9375,10.96875 c 2.0625,1.125 3.796875,1.828125 5.34375,1.828125 2.578125,0 4.453125,-1.6875 6.515625,-5.015625 l 0.84375,-1.453125 c 1.40625,-2.109375 2.0625,-4.03125 2.0625,-5.578125 0,-2.765625 -1.875,-4.6875 -5.15625,-6.515625 l -19.640625,-11.25 19.640625,-10.78125 c 3.234375,-1.78125 5.015625,-3.703125 5.015625,-6.375 0,-1.59375 -0.703125,-3.421875 -1.921875,-5.53125 l -0.84375,-1.546875 c -2.0625,-3.421875 -4.03125,-5.15625 -6.5625,-5.15625 -1.546875,0 -3.328125,0.703125 -5.34375,1.828125 L 59.820312,33.251995 V 11.26762 c 0,-6.6562499 -2.53125,-8.5781249 -9.046875,-8.5781249 h -1.6875 c -6.515625,0 -9.046875,1.96875 -9.046875,8.5781249 v 21.9375 L 21.195312,22.23637 c -2.0625,-1.171875 -3.984375,-1.921875 -5.624999,-1.921875 -2.53125,0 -4.640625,1.6875 -6.4218755,5.296875 l -0.796875,1.453125 c -1.078125,2.15625 -1.734375,3.984375 -1.734375,5.578125 0,2.625 1.6875,4.59375 4.9687505,6.421875 l 19.593749,10.734375 -19.640624,11.25 c -3.2343755,1.828125 -5.0625005,3.75 -5.0625005,6.375 0,1.59375 0.75,3.46875 1.96875,5.625 l 0.84375,1.453125 c 1.9687505,3.421875 3.8906255,5.15625 6.5625005,5.15625 1.499999,0 3.234374,-0.75 5.296874,-1.875 L 40.039062,66.86137 v 22.078125 c 0,6.609375 2.53125,8.578125 9.046875,8.578125 z"
     id="text1"
     style="font-weight:500;font-size:96px;font-family:monospace;dominant-baseline:central;text-anchor:middle;fill:#ff4488"
     aria-label="􀑇" />
</svg>
